<svg xmlns="http://www.w3.org/2000/svg" xmlns:xlink="http://www.w3.org/1999/xlink" preserveAspectRatio="xMidYMid" width="15" height="17" viewBox="0 0 15 17">
  <defs>
    <style>
      .cls-1 {
        fill: #000;
        filter: url(#color-overlay-1);
        fill-rule: evenodd;
      }
    </style>

    <filter id="color-overlay-1" filterUnits="userSpaceOnUse">
      <feFlood/>
      <feComposite operator="in" in2="SourceGraphic"/>
      <feBlend in2="SourceGraphic" result="solidFill"/>
    </filter>
  </defs>
  <path d="M15.002,6.970 L15.002,15.580 C15.002,16.885 13.755,16.998 13.755,16.998 L1.187,16.998 C-0.385,16.998 0.048,15.580 0.048,15.580 L0.048,6.530 C0.048,5.169 1.306,5.451 1.306,5.451 L1.936,5.451 C1.936,2.299 4.378,-0.002 7.389,-0.002 C10.401,-0.002 13.004,2.299 13.004,5.451 L13.755,5.438 C15.110,5.438 15.002,6.970 15.002,6.970 ZM6.539,11.471 C6.738,11.542 5.892,15.006 5.892,15.006 L8.532,14.987 C8.532,14.987 7.768,11.487 7.871,11.446 C8.609,11.151 9.134,10.403 9.134,9.527 C9.134,8.393 8.256,7.473 7.172,7.473 C6.089,7.473 5.211,8.393 5.211,9.527 C5.211,10.429 5.767,11.195 6.539,11.471 ZM7.535,1.296 C5.171,1.296 3.253,2.963 3.253,5.438 L11.817,5.438 C11.817,2.963 9.900,1.296 7.535,1.296 Z" class="cls-1"/>
</svg>
