<svg xmlns="http://www.w3.org/2000/svg" xmlns:xlink="http://www.w3.org/1999/xlink" preserveAspectRatio="xMidYMid" width="14.969" height="15" viewBox="0 0 14.969 15">
  <defs>
    <style>
      .cls-1 {
        fill: #050505;
        filter: url(#color-overlay-1);
        fill-rule: evenodd;
      }
    </style>

    <filter id="color-overlay-1" filterUnits="userSpaceOnUse">
      <feFlood/>
      <feComposite operator="in" in2="SourceGraphic"/>
      <feBlend in2="SourceGraphic" result="solidFill"/>
    </filter>
  </defs>
  <path d="M6.837,0.227 C6.316,0.227 6.396,0.456 6.116,0.496 C5.835,0.535 6.172,0.385 5.330,0.542 C4.488,0.700 4.190,1.766 4.150,2.161 C4.110,2.555 4.100,3.665 4.127,4.257 C4.207,4.613 3.926,4.613 3.926,4.613 C3.421,4.580 3.648,6.129 3.648,6.129 C3.721,6.510 3.622,6.700 4.370,6.995 C4.726,7.993 5.656,8.521 5.656,8.521 C5.656,8.521 5.660,9.137 5.674,9.593 C5.598,9.556 5.934,10.758 3.612,11.095 C1.291,11.432 0.846,12.172 0.409,12.584 C-0.029,12.996 -0.012,14.994 -0.012,14.994 L14.971,15.001 C14.971,15.001 14.859,12.996 14.422,12.584 C13.984,12.172 13.507,11.432 11.186,11.095 C8.929,10.774 9.300,9.588 9.284,9.517 C9.288,9.338 9.312,8.576 9.312,8.576 C9.312,8.576 10.101,7.964 10.457,6.966 C11.017,6.618 11.230,6.569 11.323,6.168 C11.323,6.168 11.488,4.604 10.959,4.612 C10.959,4.612 10.708,4.692 10.788,4.337 C10.868,3.981 10.842,2.871 10.802,2.477 C10.761,2.082 10.822,0.954 9.980,0.796 C9.405,0.690 9.330,0.795 9.049,0.755 C8.768,0.716 8.434,-0.000 7.912,-0.000 L6.837,0.227 Z" class="cls-1"/>
</svg>
